HIERARCHY
ROOT mixamorig:Hips
{
  OFFSET 0.000000 0.000000 0.000000
  CHANNELS 6 Xposition Yposition Zposition Xrotation Yrotation Zrotation
  JOINT mixamorig:Spine
  {
    OFFSET 0.881470 21.810334 -9.076147
    CHANNELS 3 Xrotation Yrotation Zrotation
    JOINT mixamorig:Spine2
    {
      OFFSET 0.881470 21.810334 -9.076147
      CHANNELS 3 Xrotation Yrotation Zrotation
      JOINT mixamorig:Neck
      {
        OFFSET 0.000000 4.674388 0.000000
        CHANNELS 3 Xrotation Yrotation Zrotation
        JOINT mixamorig:Head
        {
          OFFSET 0.000000 4.678088 0.000000
          CHANNELS 3 Xrotation Yrotation Zrotation
          End Site
          {
            OFFSET 0.000000 1.403426 0.000000
          }
        }
      }
      JOINT mixamorig:LeftShoulder
      {
        OFFSET 15.792676 2.209392 -1.224738
        CHANNELS 3 Xrotation Yrotation Zrotation
        JOINT mixamorig:LeftArm
        {
          OFFSET 3.082085 -20.340128 -8.765461
          CHANNELS 3 Xrotation Yrotation Zrotation
          JOINT mixamorig:LeftForeArm
          {
            OFFSET -6.633304 3.932203 -15.582597
            CHANNELS 3 Xrotation Yrotation Zrotation
            JOINT mixamorig:LeftHand
            {
              OFFSET -2.474855 3.119097 -1.955211
              CHANNELS 3 Xrotation Yrotation Zrotation
              End Site
              {
                OFFSET -0.742457 0.935729 -0.586563
              }
            }
          }
        }
      }
      JOINT mixamorig:RightShoulder
      {
        OFFSET -15.792676 2.209392 1.224738
        CHANNELS 3 Xrotation Yrotation Zrotation
        JOINT mixamorig:RightArm
        {
          OFFSET -2.495612 -27.698627 -14.139695
          CHANNELS 3 Xrotation Yrotation Zrotation
          JOINT mixamorig:RightForeArm
          {
            OFFSET 9.302673 7.642058 -20.278665
            CHANNELS 3 Xrotation Yrotation Zrotation
            JOINT mixamorig:RightHand
            {
              OFFSET 4.807220 4.843324 -4.521461
              CHANNELS 3 Xrotation Yrotation Zrotation
              End Site
              {
                OFFSET 1.442166 1.452997 -1.356438
              }
            }
          }
        }
      }
    }
  }
  JOINT mixamorig:LeftUpLeg
  {
    OFFSET 10.328032 0.296165 2.790499
    CHANNELS 3 Xrotation Yrotation Zrotation
    JOINT mixamorig:LeftLeg
    {
      OFFSET 12.238276 -41.735834 -6.323935
      CHANNELS 3 Xrotation Yrotation Zrotation
      JOINT mixamorig:LeftFoot
      {
        OFFSET 10.293044 -35.926831 16.299592
        CHANNELS 3 Xrotation Yrotation Zrotation
        JOINT mixamorig:LeftToeBase
        {
          OFFSET 1.935367 -5.189186 -6.192034
          CHANNELS 3 Xrotation Yrotation Zrotation
          End Site
          {
            OFFSET 0.580610 -1.556756 -1.857610
          }
        }
      }
    }
  }
  JOINT mixamorig:RightUpLeg
  {
    OFFSET -10.328032 -0.296165 -2.790499
    CHANNELS 3 Xrotation Yrotation Zrotation
    JOINT mixamorig:RightLeg
    {
      OFFSET -6.716455 -33.878452 3.035436
      CHANNELS 3 Xrotation Yrotation Zrotation
      JOINT mixamorig:RightFoot
      {
        OFFSET -12.031321 -38.248560 17.087646
        CHANNELS 3 Xrotation Yrotation Zrotation
        JOINT mixamorig:RightToeBase
        {
          OFFSET -4.660299 -1.482713 -10.654258
          CHANNELS 3 Xrotation Yrotation Zrotation
          End Site
          {
            OFFSET -1.398090 -0.444814 -3.196277
          }
        }
      }
    }
  }
}
MOTION
Frames: 9
Frame Time: 0.083333
0.076171 0.234099 0.115675 -2.026619 -0.256875 -0.769350 0.000000 0.000000 -0.000000 -22.528086 1.961528 1.717024 2.461799 -5.948192 3.300956 2.081866 -6.087402 3.032657 28.414663 -4.513252 6.268128 4.997464 3.625642 -9.340176 1.170847 4.271892 0.453742 0.000000 0.000000 0.000000 34.399939 -6.593386 5.922914 1.894820 8.323654 1.354780 -5.644395 -2.606567 -0.259017 0.000000 0.000000 0.000000 12.123732 2.341632 5.106064 -8.144693 -1.023160 -5.406465 -3.406075 -3.811437 3.354261 0.000000 0.000000 0.000000 10.404436 -1.355292 -6.498758 -8.108609 0.922857 8.150179 4.494372 0.865386 -3.008207 0.000000 0.000000 0.000000
0.076024 0.235781 0.115934 -1.065433 0.088840 0.119282 0.000000 0.000000 -0.000000 -22.459377 3.700533 1.459476 2.894071 -4.945606 4.588227 2.472749 -5.169667 4.330757 30.456383 -8.557968 11.594993 -0.172709 13.409645 -10.314325 4.544041 0.479072 5.314424 0.000000 0.000000 0.000000 33.446684 -6.476522 3.159850 -0.308314 7.030630 3.973210 -5.026341 -3.171677 -0.678280 0.000000 0.000000 0.000000 10.654884 1.689058 4.291046 -5.964374 -0.363021 -4.724464 -2.849597 -4.584504 3.379264 0.000000 0.000000 0.000000 10.275656 -1.960752 -7.484629 -8.887511 1.207127 9.107247 4.021230 1.725306 -3.719771 0.000000 0.000000 0.000000
0.072698 0.239274 0.115692 0.274891 0.479115 1.202727 -0.000000 0.000000 -0.000000 -22.382419 5.994205 1.103925 2.986483 -3.300688 5.966381 2.620268 -3.589537 5.784252 33.498521 -13.733927 18.052953 -1.260397 25.176220 -13.473021 4.209290 -4.339505 12.226395 0.000000 0.000000 0.000000 31.994979 -7.901540 2.072325 -2.297108 7.630900 5.103687 -3.795851 -4.062465 -0.201940 0.000000 0.000000 0.000000 8.426033 0.928841 3.254860 -3.020308 0.615088 -3.563308 -2.986099 -5.484658 2.759430 0.000000 0.000000 0.000000 8.447351 -2.416095 -8.616047 -7.803406 1.478837 10.167980 2.998084 3.829708 -4.771942 0.000000 0.000000 0.000000
0.067272 0.243118 0.122271 2.402465 0.822019 2.407408 -0.000000 0.000000 0.000000 -22.315622 8.470080 0.420716 1.924511 -2.407856 7.158384 1.606006 -2.613440 7.075267 37.304693 -19.220281 24.846370 -0.842529 36.729409 -17.569871 3.503950 -8.780160 17.008099 0.000000 0.000000 0.000000 28.812423 -9.810661 1.739545 -2.220362 8.891891 5.808582 -3.068173 -5.356674 0.008023 0.000000 0.000000 0.000000 4.409605 0.208383 1.717343 -0.447285 1.492550 -1.904176 -3.103658 -3.792053 -0.249759 0.000000 0.000000 0.000000 3.600270 -2.337025 -9.543914 -4.406593 1.506992 10.095223 1.773057 7.330705 -5.257456 0.000000 0.000000 0.000000
0.061124 0.245835 0.137795 6.699112 1.129771 4.117494 0.000000 0.000000 0.000000 -22.254040 11.298592 -1.196292 0.115909 -2.430243 8.323286 -0.239512 -2.411732 8.314050 41.154236 -23.492339 30.385689 -3.641180 45.649669 -19.660523 1.128773 -12.672493 19.226774 0.000000 0.000000 0.000000 24.235813 -12.356190 2.420140 -1.434200 10.943959 6.177987 -3.559686 -6.028320 -0.142001 0.000000 0.000000 0.000000 -2.111129 -0.203051 -0.525866 2.776511 2.393703 -0.390048 -4.920436 -2.119756 -3.367422 0.000000 0.000000 0.000000 -2.910478 -2.014964 -11.469383 -1.846588 1.587041 10.558744 -0.156514 11.003442 -5.521128 0.000000 0.000000 0.000000
0.057147 0.246313 0.161145 12.887113 1.201764 5.922899 0.000000 0.000000 -0.000000 -22.228827 12.960291 -4.002953 -1.772136 -2.398961 9.080969 -2.121909 -2.083356 9.130818 47.697846 -19.840538 28.975457 -24.626405 38.504436 -12.594573 -5.172153 -10.220252 17.249492 0.000000 0.000000 0.000000 19.594721 -13.793494 3.748755 -1.363231 13.344693 6.244200 -5.056038 -5.218877 -0.194919 0.000000 0.000000 0.000000 -9.952463 0.187733 -2.845151 5.051616 3.009512 0.739746 -7.716994 -1.298541 -5.678467 0.000000 0.000000 0.000000 -8.136050 -1.661955 -14.056830 -1.657533 1.618110 11.968416 -3.344836 12.329509 -5.610204 0.000000 0.000000 0.000000
0.054891 0.243644 0.182458 19.459346 0.787950 6.696547 0.000000 0.000000 -0.000000 -22.082983 16.323655 -5.722625 -4.402230 -1.112695 9.587909 -4.518546 -0.346889 9.705244 54.720030 -10.086600 20.808927 -57.041888 15.715814 0.283555 -11.739325 -4.585338 14.013465 0.000000 0.000000 0.000000 13.250350 -16.365961 4.206891 -2.086731 15.747808 6.359275 -5.157529 -4.477991 0.693756 0.000000 0.000000 0.000000 -17.005558 1.393722 -3.557578 5.723959 3.259721 1.210749 -8.090907 -0.584781 -6.816123 0.000000 0.000000 0.000000 -13.660375 -0.673867 -15.442248 -1.003680 1.409685 13.040207 -6.007443 13.938165 -5.714667 0.000000 0.000000 0.000000
0.053616 0.239748 0.194707 25.460081 0.264979 7.033817 0.000000 0.000000 -0.000000 -21.956057 18.835597 -7.328664 -7.142369 -0.749679 10.466562 -7.154415 0.556279 10.638710 47.843536 -5.596505 16.392020 -60.679333 -5.207975 -2.614013 -8.761939 4.785974 15.244053 0.000000 0.000000 0.000000 5.707296 -18.282534 4.413346 -0.100100 17.498699 6.420160 -5.076422 -4.374379 1.622547 0.000000 0.000000 0.000000 -23.225486 2.646526 -3.534996 5.807031 3.346618 1.378761 -6.666735 -0.351219 -6.781318 0.000000 0.000000 0.000000 -18.278142 0.311763 -15.726930 -2.540069 1.366535 13.209533 -6.431049 14.961267 -5.633994 0.000000 0.000000 0.000000
0.051992 0.237281 0.197109 27.892477 0.108119 7.547562 -0.000000 0.000000 -0.000000 -21.894748 20.029172 -8.447966 -7.793592 -0.021271 10.830744 -7.659461 1.438962 10.938524 40.693065 -3.941135 12.372913 -52.011447 -10.888523 -5.551024 -9.983816 2.395281 12.147707 0.000000 0.000000 0.000000 3.201177 -19.248317 4.683851 1.656986 18.269498 7.066945 -5.503141 -4.831876 1.722116 0.000000 0.000000 0.000000 -25.887572 3.257454 -3.926828 5.862897 3.366824 1.498214 -6.190383 -0.742434 -6.335071 0.000000 0.000000 0.000000 -18.974363 0.498150 -16.811920 -4.674409 1.231331 13.813907 -6.816943 16.041598 -5.505525 0.000000 0.000000 0.000000
